<?xml version="1.0" encoding="utf-8"?>
<!-- Generator: Adobe Illustrator 17.0.1, SVG Export Plug-In . SVG Version: 6.00 Build 0)  -->
<!DOCTYPE svg PUBLIC "-//W3C//DTD SVG 1.1//EN" "http://www.w3.org/Graphics/SVG/1.1/DTD/svg11.dtd">
<svg version="1.1" id="Layer_1" xmlns="http://www.w3.org/2000/svg" xmlns:xlink="http://www.w3.org/1999/xlink" x="0px" y="0px"
	 width="1448.5px" height="913.76px" viewBox="473.5 90.26 1448.5 913.76" enable-background="new 473.5 90.26 1448.5 913.76"
	 xml:space="preserve">
<rect x="473.5" y="90.26" fill="#2C3F51" width="1448.5" height="913.76"/>
<path fill="#C8D6DB" d="M1564.121,767.06c0,15.72-12.743,28.465-28.468,28.465c-15.723,0-28.464-12.745-28.464-28.465
	c0-15.723,12.741-28.466,28.464-28.466C1551.378,738.594,1564.121,751.337,1564.121,767.06"/>
<path fill="#119DA9" d="M1559.224,767.06c0,13.017-10.551,23.572-23.57,23.572s-23.57-10.556-23.57-23.572
	c0-13.02,10.551-23.573,23.57-23.573S1559.224,754.04,1559.224,767.06"/>
<path fill="#010101" d="M1816.876,536.313c0,14.574-11.817,26.392-26.389,26.392h-201.954c-14.574,0,0-11.817,0-26.392
	c0-14.573-14.574-26.391,0-26.391h201.954C1805.059,509.921,1816.876,521.739,1816.876,536.313"/>
<path fill="#010101" d="M1570.14,536.313c0,15.723-12.741,28.467-28.463,28.467c-15.723,0-28.464-12.744-28.464-28.467
	c0-15.72,12.741-28.465,28.464-28.465C1557.398,507.848,1570.14,520.592,1570.14,536.313"/>
<path fill="#010101" d="M1565.248,536.313c0,13.019-10.555,23.572-23.571,23.572c-13.021,0-23.571-10.554-23.571-23.572
	c0-13.016,10.551-23.572,23.571-23.572C1554.693,512.741,1565.248,523.297,1565.248,536.313"/>
<g enable-background="new    ">
	<path fill="#010101" d="M1545.346,541.882h-8.099l-1.446,4.993h-6l8.293-25.689h6.404l8.311,25.689h-5.998L1545.346,541.882z
		 M1538.57,537.294h5.452l-2.683-9.192h-0.105L1538.57,537.294z"/>
</g>
<path fill="#010101" d="M1816.876,614.724c0,14.572-11.817,26.39-26.389,26.39h-201.954c-14.574,0,0-11.817,0-26.39
	c0-14.575-14.574-26.392,0-26.392h201.954C1805.059,588.332,1816.876,600.148,1816.876,614.724"/>
<path fill="#010101" d="M1570.14,614.724c0,15.721-12.741,28.466-28.463,28.466c-15.723,0-28.464-12.745-28.464-28.466
	c0-15.724,12.741-28.467,28.464-28.467C1557.398,586.257,1570.14,599,1570.14,614.724"/>
<path fill="#010101" d="M1565.248,614.724c0,13.018-10.555,23.573-23.571,23.573c-13.021,0-23.571-10.556-23.571-23.573
	c0-13.019,10.551-23.573,23.571-23.573C1554.693,591.15,1565.248,601.705,1565.248,614.724"/>
<g enable-background="new    ">
	<path fill="#010101" d="M1531.689,625.285v-25.689h8.822c3.188,0,5.675,0.591,7.463,1.773c1.787,1.182,2.682,2.943,2.682,5.284
		c0,1.224-0.288,2.312-0.864,3.264c-0.577,0.953-1.464,1.671-2.665,2.152c1.506,0.342,2.617,1.026,3.336,2.056
		c0.717,1.029,1.076,2.215,1.076,3.556c0,2.506-0.842,4.399-2.523,5.682s-4.094,1.923-7.234,1.923L1531.689,625.285
		L1531.689,625.285z M1537.67,610.306h2.965c1.353-0.023,2.364-0.285,3.035-0.785c0.67-0.5,1.006-1.232,1.006-2.197
		c0-1.094-0.342-1.891-1.023-2.391c-0.684-0.5-1.729-0.75-3.141-0.75h-2.842V610.306z M1537.67,614.258v6.439h4.111
		c1.271,0,2.224-0.249,2.858-0.749c0.636-0.5,0.953-1.268,0.953-2.303c0-1.117-0.273-1.962-0.821-2.532
		c-0.547-0.57-1.432-0.855-2.654-0.855L1537.67,614.258L1537.67,614.258z"/>
</g>
<path fill="#010101" d="M1816.876,693.133c0,14.574-11.817,26.39-26.389,26.39h-201.954c-14.574,0,0-11.815,0-26.39
	s-14.574-26.39,0-26.39h201.954C1805.059,666.743,1816.876,678.558,1816.876,693.133"/>
<path fill="#010101" d="M1570.14,693.133c0,15.721-12.741,28.466-28.463,28.466c-15.723,0-28.464-12.745-28.464-28.466
	s12.741-28.467,28.464-28.467C1557.398,664.666,1570.14,677.412,1570.14,693.133"/>
<path fill="#010101" d="M1565.248,693.133c0,13.018-10.555,23.571-23.571,23.571c-13.021,0-23.571-10.554-23.571-23.571
	c0-13.019,10.551-23.572,23.571-23.572C1554.693,669.561,1565.248,680.114,1565.248,693.133"/>
<g enable-background="new    ">
	<path fill="#010101" d="M1551.697,697.689l0.035,0.105c-0.117,3.012-1.008,5.311-2.673,6.898s-4.079,2.382-7.243,2.382
		c-3.176,0-5.758-0.976-7.745-2.929c-1.988-1.952-2.981-4.487-2.981-7.604v-5.363c0-3.105,0.955-5.638,2.867-7.596
		c1.91-1.959,4.396-2.938,7.454-2.938c3.247,0,5.728,0.818,7.446,2.453c1.717,1.635,2.688,3.958,2.91,6.969l-0.035,0.106h-5.805
		c-0.082-1.67-0.456-2.911-1.12-3.723c-0.665-0.813-1.797-1.218-3.396-1.218c-1.353,0-2.417,0.544-3.194,1.632
		c-0.775,1.088-1.164,2.515-1.164,4.279v5.398c0,1.776,0.424,3.211,1.271,4.306c0.847,1.094,2.011,1.641,3.493,1.641
		c1.436,0,2.453-0.382,3.053-1.147c0.6-0.764,0.941-1.981,1.023-3.651L1551.697,697.689L1551.697,697.689z"/>
</g>
<rect x="636.956" y="391.266" fill="#010101" width="485.915" height="314.806"/>
<path fill="#010101" d="M1119.473,527.833c9.078,0,16.443,9.325,16.443,20.82c0,11.537-7.365,20.844-16.443,20.844
	c-9.087,0-16.451-9.307-16.451-20.844C1103.021,537.157,1110.386,527.833,1119.473,527.833"/>
<rect x="658.29" y="618.881" fill="#010101" width="240.07" height="53.893"/>
<rect x="803.52" y="554.803" fill="#010101" width="94.84" height="53.906"/>
<rect x="766.796" y="490.761" fill="#010101" width="131.564" height="53.891"/>
<rect x="729.4" y="419.355" fill="#010101" width="168.959" height="53.897"/>
<rect x="1049.507" y="426.3" fill="#010101" width="21.408" height="246.458"/>
<rect x="1006.697" y="426.3" fill="#010101" width="21.412" height="246.458"/>
<rect x="963.873" y="426.3" fill="#010101" width="21.41" height="246.458"/>
<rect x="921.044" y="426.3" fill="#010101" width="21.415" height="246.458"/>
<polygon fill="#010101" points="1643.747,447.599 1628.888,391.193 1632.262,390.299 1647.123,446.711 "/>
<path fill="#010101" d="M1635.152,390.745c0,2.523-2.054,4.577-4.576,4.577c-2.525,0-4.575-2.054-4.575-4.577
	s2.05-4.578,4.575-4.578C1633.099,386.167,1635.152,388.221,1635.152,390.745"/>
<polygon fill="#010101" points="1660.647,447.599 1675.5,391.193 1672.128,390.299 1657.271,446.711 "/>
<path fill="#010101" d="M1669.242,390.745c0,2.523,2.05,4.577,4.571,4.577c2.522,0,4.574-2.054,4.574-4.577
	s-2.052-4.578-4.574-4.578C1671.292,386.167,1669.242,388.221,1669.242,390.745"/>
<rect x="880.193" y="490.818" fill="#010101" width="473.681" height="326.148"/>
<rect x="1154.334" y="615.264" fill="#010101" width="181.777" height="19.978"/>
<rect x="1154.334" y="655.192" fill="#010101" width="181.777" height="19.978"/>
<rect x="1154.334" y="695.139" fill="#010101" width="181.777" height="19.966"/>
<rect x="1154.334" y="735.071" fill="#010101" width="181.777" height="19.95"/>
<rect x="1283.329" y="551.275" fill="#010101" width="52.782" height="32.29"/>
<rect x="1154.334" y="551.275" fill="#010101" width="117.266" height="32.29"/>
<rect x="1197.327" y="551.275" fill="#010101" width="52.746" height="32.29"/>
<path fill="#010101" d="M918.222,713.765c33.46,44.471,96.633,53.375,141.101,19.914c44.483-33.468,53.394-96.636,19.922-141.108
	c-33.461-44.482-96.642-53.386-141.103-19.918C893.661,606.121,884.751,669.297,918.222,713.765"/>
<path fill="#010101" d="M938.144,572.653c44.313-33.376,107.226-24.612,140.775,19.49l-81.309,61.202l60.904,80.922
	c-44.421,32.751-107.029,23.702-140.29-20.503C884.752,669.297,893.665,606.124,938.144,572.653"/>
<path fill="#010101" d="M938.208,572.604c44.308-33.301,107.164-24.526,140.708,19.542l-80.451,60.556L938.208,572.604z"/>
<path fill="#010101" d="M1471.721,416.788l-7.311-7.309c1.283-1.519,2.086-3.457,2.086-5.597c0-4.807-3.906-8.72-8.716-8.72
	c-4.804,0-8.711,3.913-8.711,8.72c0,4.808,3.907,8.72,8.711,8.72c1.711,0,3.296-0.517,4.639-1.366l7.429,7.426L1471.721,416.788z
	 M1451.717,403.882c0-3.343,2.719-6.066,6.063-6.066c3.349,0,6.066,2.724,6.066,6.066c0,3.341-2.718,6.067-6.066,6.067
	C1454.436,409.95,1451.717,407.224,1451.717,403.882"/>
<path fill="none" stroke="#010101" stroke-width="1.204" stroke-miterlimit="10" d="M1268.515,696.943
	c0,21.35-17.313,38.663-38.66,38.663c-21.351,0-38.67-17.313-38.67-38.663c0-21.357,17.319-38.66,38.67-38.66
	C1251.201,658.283,1268.515,675.586,1268.515,696.943z"/>
<path fill="none" stroke="#010101" stroke-width="1.921" stroke-miterlimit="10" d="M1291.549,696.943
	c0,34.081-27.627,61.686-61.7,61.686s-61.692-27.604-61.692-61.686c0-34.077,27.619-61.702,61.692-61.702
	S1291.549,662.866,1291.549,696.943z"/>
<path fill="#2C3F51" d="M1819.601,536.313c0,17.901-14.514,32.414-32.413,32.414h-254.311c-17.899,0-32.408-14.513-32.408-32.414
	s14.509-32.413,32.408-32.413h254.311C1805.087,503.899,1819.601,518.411,1819.601,536.313"/>
<path fill="#F2F2F2" d="M1810.852,536.313c0,14.574-11.813,26.392-26.388,26.392H1582.51c-14.575,0,0-11.817,0-26.392
	c0-14.573-14.575-26.391,0-26.391h201.954C1799.038,509.921,1810.852,521.739,1810.852,536.313"/>
<path fill="#C8D6DB" d="M1564.121,536.313c0,15.723-12.743,28.467-28.468,28.467c-15.723,0-28.464-12.744-28.464-28.467
	c0-15.72,12.741-28.465,28.464-28.465C1551.378,507.848,1564.121,520.592,1564.121,536.313"/>
<path fill="#119DA9" d="M1559.224,536.313c0,13.019-10.551,23.572-23.57,23.572s-23.57-10.554-23.57-23.572
	c0-13.016,10.551-23.572,23.57-23.572S1559.224,523.297,1559.224,536.313"/>
<g enable-background="new    ">
	<path fill="#F2F2F2" d="M1539.323,541.882h-8.099l-1.447,4.993h-5.998l8.292-25.689h6.405l8.311,25.689h-6L1539.323,541.882z
		 M1532.548,537.294H1538l-2.682-9.192h-0.106L1532.548,537.294z"/>
</g>
<path fill="#2C3F51" d="M1819.601,614.724c0,17.9-14.514,32.41-32.413,32.41h-254.311c-17.899,0-32.408-14.51-32.408-32.41
	c0-17.901,14.509-32.414,32.408-32.414h254.311C1805.087,582.31,1819.601,596.822,1819.601,614.724"/>
<path fill="#F2F2F2" d="M1810.852,614.724c0,14.572-11.813,26.39-26.388,26.39H1582.51c-14.575,0,0-11.817,0-26.39
	c0-14.575-14.575-26.392,0-26.392h201.954C1799.038,588.332,1810.852,600.148,1810.852,614.724"/>
<path fill="#C8D6DB" d="M1564.121,614.724c0,15.721-12.743,28.466-28.468,28.466c-15.723,0-28.464-12.745-28.464-28.466
	c0-15.724,12.741-28.467,28.464-28.467C1551.378,586.257,1564.121,599,1564.121,614.724"/>
<path fill="#119DA9" d="M1559.224,614.724c0,13.018-10.551,23.573-23.57,23.573s-23.57-10.556-23.57-23.573
	c0-13.019,10.551-23.573,23.57-23.573S1559.224,601.705,1559.224,614.724"/>
<g enable-background="new    ">
	<path fill="#F2F2F2" d="M1525.666,625.285v-25.689h8.822c3.188,0,5.676,0.591,7.464,1.773s2.682,2.943,2.682,5.284
		c0,1.224-0.288,2.312-0.864,3.264c-0.576,0.953-1.465,1.671-2.664,2.152c1.506,0.342,2.617,1.026,3.334,2.056
		c0.718,1.029,1.076,2.215,1.076,3.556c0,2.506-0.84,4.399-2.522,5.682s-4.093,1.923-7.233,1.923L1525.666,625.285L1525.666,625.285
		z M1531.648,610.306h2.964c1.353-0.023,2.364-0.285,3.034-0.785c0.671-0.5,1.006-1.232,1.006-2.197
		c0-1.094-0.341-1.891-1.023-2.391s-1.729-0.75-3.141-0.75h-2.84L1531.648,610.306L1531.648,610.306z M1531.648,614.258v6.439h4.111
		c1.27,0,2.223-0.249,2.857-0.749s0.953-1.268,0.953-2.303c0-1.117-0.273-1.962-0.82-2.532s-1.433-0.855-2.656-0.855
		L1531.648,614.258L1531.648,614.258z"/>
</g>
<path fill="#2C3F51" d="M1819.601,693.133c0,17.901-14.514,32.412-32.413,32.412h-254.311c-17.899,0-32.408-14.511-32.408-32.412
	c0-17.903,14.509-32.413,32.408-32.413h254.311C1805.087,660.72,1819.601,675.229,1819.601,693.133"/>
<path fill="#F2F2F2" d="M1810.852,693.133c0,14.574-11.813,26.39-26.388,26.39H1582.51c-14.575,0,0-11.815,0-26.39
	s-14.575-26.39,0-26.39h201.954C1799.038,666.743,1810.852,678.558,1810.852,693.133"/>
<path fill="#C8D6DB" d="M1564.121,693.133c0,15.721-12.743,28.466-28.468,28.466c-15.723,0-28.464-12.745-28.464-28.466
	s12.741-28.467,28.464-28.467C1551.378,664.666,1564.121,677.412,1564.121,693.133"/>
<path fill="#119DA9" d="M1559.224,693.133c0,13.018-10.551,23.571-23.57,23.571s-23.57-10.554-23.57-23.571
	c0-13.019,10.551-23.572,23.57-23.572S1559.224,680.114,1559.224,693.133"/>
<g enable-background="new    ">
	<path fill="#F2F2F2" d="M1545.675,697.689l0.036,0.105c-0.118,3.012-1.01,5.311-2.674,6.898s-4.078,2.382-7.242,2.382
		c-3.176,0-5.759-0.976-7.746-2.929c-1.988-1.952-2.982-4.487-2.982-7.604v-5.363c0-3.105,0.956-5.638,2.867-7.596
		c1.912-1.959,4.396-2.938,7.455-2.938c3.246,0,5.729,0.818,7.445,2.453c1.718,1.635,2.688,3.958,2.912,6.969l-0.035,0.106h-5.806
		c-0.083-1.67-0.456-2.911-1.12-3.723c-0.665-0.813-1.797-1.218-3.396-1.218c-1.354,0-2.418,0.544-3.193,1.632
		c-0.777,1.088-1.165,2.515-1.165,4.279v5.398c0,1.776,0.424,3.211,1.271,4.306c0.848,1.094,2.012,1.641,3.494,1.641
		c1.435,0,2.452-0.382,3.052-1.147c0.601-0.764,0.94-1.981,1.023-3.651L1545.675,697.689L1545.675,697.689z"/>
</g>
<path fill="#99CCCB" d="M1113.36,361.152c15.197,0,27.519,15.603,27.519,34.854v305.325c0,19.253-12.321,34.846-27.519,34.846
	H633.423c-15.199,0-27.532-15.594-27.532-34.846V396.006c0-19.251,12.333-34.854,27.532-34.854H1113.36z"/>
<rect x="630.151" y="391.266" fill="#F2F2F2" width="485.914" height="314.806"/>
<path fill="#010101" d="M1112.669,527.833c9.078,0,16.442,9.325,16.442,20.82c0,11.537-7.364,20.844-16.442,20.844
	c-9.089,0-16.452-9.307-16.452-20.844C1096.217,537.157,1103.58,527.833,1112.669,527.833"/>
<rect x="651.487" y="618.881" fill="#4D6B8E" width="240.066" height="53.893"/>
<rect x="796.715" y="554.803" fill="#2C3F51" width="94.837" height="53.906"/>
<rect x="759.993" y="490.761" fill="#119DA9" width="131.56" height="53.891"/>
<rect x="722.596" y="419.355" fill="#C8D6DB" width="168.957" height="53.897"/>
<rect x="1042.7" y="426.3" fill="#C8D6DB" width="21.409" height="246.458"/>
<rect x="999.894" y="426.3" fill="#C8D6DB" width="21.411" height="246.458"/>
<rect x="957.069" y="426.3" fill="#C8D6DB" width="21.409" height="246.458"/>
<rect x="914.24" y="426.3" fill="#C8D6DB" width="21.414" height="246.458"/>
<path fill="#99CCCB" d="M1647.67,428.261c10.246,0,18.55,7.135,18.553,15.934v5.922c-0.003,8.799-8.31,15.933-18.553,15.939
	c-10.239-0.007-18.541-7.133-18.541-15.939v-5.922C1629.135,435.396,1637.431,428.261,1647.67,428.261"/>
<path fill="#C8D6DB" d="M1647.654,345.395c-22.215,0-40.219,18-40.219,40.215c0,7.576,2.133,14.637,5.777,20.69l-0.031-0.018
	c0,0,15.897,26.213,15.897,37.089h18.567h18.576c0-10.876,15.893-37.089,15.893-37.089l-0.027,0.013
	c3.641-6.054,5.776-13.109,5.776-20.685"/>
<path fill="#C8D6DB" d="M1687.864,385.61c0-22.215-18.005-40.215-40.21-40.215"/>
<polygon fill="#2C3F51" points="1637.724,447.599 1622.867,391.193 1626.238,390.299 1641.1,446.711 "/>
<path fill="#4D6B8E" d="M1629.129,390.745c0,2.523-2.055,4.577-4.576,4.577c-2.522,0-4.572-2.054-4.572-4.577
	s2.05-4.578,4.572-4.578C1627.074,386.167,1629.129,388.221,1629.129,390.745"/>
<polygon fill="#2C3F51" points="1654.624,447.599 1669.479,391.193 1666.104,390.299 1651.247,446.711 "/>
<path fill="#4D6B8E" d="M1663.22,390.745c0,2.523,2.05,4.577,4.57,4.577c2.525,0,4.574-2.054,4.574-4.577s-2.049-4.578-4.574-4.578
	C1665.27,386.167,1663.22,388.221,1663.22,390.745"/>
<path fill="#C8D6DB" d="M1723.923,348.67c-0.393,0.84-1.008,1.939-1.84,3.108c-1.653,2.336-4.276,4.736-7.286,6.468
	c-3.008,1.73-6.401,2.795-9.254,3.068c-1.423,0.132-2.68,0.12-3.606,0.043c-0.914-0.071-1.493-0.203-1.493-0.203"/>
<path fill="#C8D6DB" d="M1700.443,361.155c0,0,0.174-0.566,0.573-1.394c0.387-0.839,1.013-1.934,1.839-3.105
	c1.657-2.331,4.281-4.737,7.282-6.48c3.003-1.74,6.396-2.81,9.245-3.074"/>
<path fill="#C8D6DB" d="M1708.316,391.915c0,0,0.433-0.405,1.192-0.925c0.757-0.527,1.848-1.165,3.146-1.764
	c2.606-1.188,6.074-1.964,9.547-1.969c3.477-0.006,6.943,0.764,9.552,1.959c1.299,0.597,2.384,1.241,3.144,1.771
	c0.76,0.522,1.193,0.927,1.193,0.927s-0.434,0.407-1.193,0.928c-0.76,0.529-1.845,1.174-3.144,1.77
	c-2.608,1.195-6.075,1.966-9.552,1.96c-3.473-0.006-6.94-0.783-9.547-1.969c-1.298-0.6-2.389-1.238-3.146-1.764
	C1708.749,392.322,1708.316,391.915,1708.316,391.915"/>
<path fill="#C8D6DB" d="M1723.923,348.67c-0.393,0.84-1.008,1.939-1.84,3.108c-1.653,2.336-4.276,4.736-7.286,6.468
	c-3.008,1.73-6.401,2.795-9.254,3.068c-1.423,0.132-2.68,0.12-3.606,0.043c-0.914-0.071-1.493-0.203-1.493-0.203"/>
<path fill="#C8D6DB" d="M1700.443,361.155c0,0,0.174-0.566,0.573-1.394c0.387-0.839,1.013-1.934,1.839-3.105
	c1.657-2.331,4.281-4.737,7.282-6.48c3.003-1.74,6.396-2.81,9.245-3.074"/>
<path fill="#C8D6DB" d="M1708.316,391.915c0,0,0.433-0.405,1.192-0.925c0.757-0.527,1.848-1.165,3.146-1.764
	c2.606-1.188,6.074-1.964,9.547-1.969c3.477-0.006,6.943,0.764,9.552,1.959c1.299,0.597,2.384,1.241,3.144,1.771
	c0.76,0.522,1.193,0.927,1.193,0.927s-0.434,0.407-1.193,0.928c-0.76,0.529-1.845,1.174-3.144,1.77
	c-2.608,1.195-6.075,1.966-9.552,1.96c-3.473-0.006-6.94-0.783-9.547-1.969c-1.298-0.6-2.389-1.238-3.146-1.764
	C1708.749,392.322,1708.316,391.915,1708.316,391.915"/>
<path fill="#C8D6DB" d="M1575.959,347.102c2.853,0.265,6.247,1.334,9.247,3.074c3.008,1.741,5.624,4.149,7.289,6.48
	c0.827,1.171,1.446,2.266,1.839,3.105c0.4,0.828,0.573,1.394,0.573,1.394"/>
<path fill="#C8D6DB" d="M1594.907,361.155c0,0-0.58,0.132-1.494,0.203c-0.925,0.077-2.184,0.089-3.608-0.043
	c-2.854-0.273-6.247-1.338-9.258-3.068c-3.004-1.732-5.628-4.132-7.287-6.468c-0.828-1.169-1.445-2.268-1.836-3.108"/>
<path fill="#C8D6DB" d="M1587.029,391.915c0,0-0.435,0.407-1.194,0.926c-0.757,0.526-1.845,1.164-3.144,1.764
	c-2.608,1.187-6.074,1.963-9.548,1.969c-3.47,0.005-6.94-0.765-9.545-1.96c-1.3-0.596-2.385-1.241-3.144-1.77
	c-0.76-0.521-1.197-0.928-1.197-0.928s0.438-0.405,1.197-0.927c0.759-0.53,1.844-1.174,3.144-1.771
	c2.604-1.196,6.075-1.965,9.545-1.959c3.474,0.005,6.939,0.782,9.548,1.969c1.299,0.599,2.387,1.237,3.144,1.764
	C1586.595,391.509,1587.029,391.915,1587.029,391.915"/>
<path fill="#818181" d="M1376.873,823.269c0,13.067-10.588,23.64-23.643,23.64H867.229c-13.062,0-23.646-10.572-23.646-23.64
	v-338.75c0-13.054,10.584-23.643,23.646-23.643h486.001c13.055,0,23.643,10.589,23.643,23.643L1376.873,823.269L1376.873,823.269z"
	/>
<rect x="873.388" y="490.818" fill="#F2F2F2" width="473.679" height="326.148"/>
<rect x="1069.476" y="589.086" fill="#2C3F51" width="181.776" height="19.979"/>
<rect x="1069.476" y="629.016" fill="#2C3F51" width="181.776" height="19.979"/>
<rect x="1069.476" y="668.961" fill="#2C3F51" width="181.776" height="19.966"/>
<rect x="1069.476" y="708.894" fill="#2C3F51" width="181.776" height="19.951"/>
<rect x="1265.155" y="535.069" fill="#C8D6DB" width="52.785" height="32.291"/>
<rect x="940.717" y="535.069" fill="#119DA9" width="316.286" height="32.291"/>
<path fill="#E5E5E5" d="M1478.12,406.381c0,12.416-10.067,22.479-22.48,22.479H1221.8c-12.413,0-22.481-10.063-22.481-22.479
	c0-12.413,10.068-22.478,22.481-22.478h233.84C1468.053,383.903,1478.12,393.968,1478.12,406.381"/>
<path fill="#99CCCB" d="M1455.64,383.901h-21.018v44.96h21.018c12.413,0,22.48-10.063,22.48-22.482
	C1478.12,393.966,1468.053,383.901,1455.64,383.901"/>
<path fill="#2C3F51" d="M1464.918,416.788l-7.312-7.309c1.283-1.519,2.086-3.457,2.086-5.597c0-4.807-3.904-8.72-8.716-8.72
	c-4.806,0-8.711,3.913-8.711,8.72c0,4.808,3.905,8.72,8.711,8.72c1.709,0,3.294-0.517,4.639-1.366l7.429,7.426L1464.918,416.788z
	 M1444.913,403.882c0-3.343,2.719-6.066,6.063-6.066c3.349,0,6.066,2.724,6.066,6.066c0,3.341-2.718,6.067-6.066,6.067
	C1447.632,409.95,1444.913,407.224,1444.913,403.882"/>
<path fill="#F2F2F2" d="M1810.852,764.983c0,14.573-11.813,26.39-26.388,26.39H1582.51c-14.575,0,0-11.816,0-26.39
	c0-14.575-14.575-26.39,0-26.39h201.954C1799.038,738.594,1810.852,750.408,1810.852,764.983"/>
<g enable-background="new    ">
	<path fill="#F2F2F2" d="M1525.844,780.132v-25.689h10.095c3.289,0,6.04,0.985,8.254,2.955c2.213,1.971,3.32,4.496,3.32,7.578v4.623
		c0,3.094-1.107,5.622-3.32,7.587c-2.214,1.964-4.965,2.946-8.254,2.946L1525.844,780.132L1525.844,780.132z M1532.35,759.029
		v16.515h3.147c1.728,0,3.077-0.544,4.05-1.632s1.459-2.525,1.459-4.313v-4.658c0-1.776-0.486-3.205-1.459-4.287
		c-0.973-1.083-2.322-1.624-4.05-1.624L1532.35,759.029L1532.35,759.029z"/>
</g>
<path fill="#FBC48E" d="M1736.405,769.305c0,0,0.177-15.255-14.497-15.255s-12.434,14.341-12.434,14.341
	s-1.601-24.981-19.155-24.981c-13.138,0-14.998,16.953-14.851,21.516c-0.907-6.813-0.094-27.265-18.68-27.265
	c-18.589,0-17.032,26.764-17.032,26.764l-0.783-2.144l-0.287-40.166v-18.559c0-0.494-0.094-0.939-0.145-1.417l-0.008-1.739
	c0,0-0.186-0.437-0.575-1.116c-1.818-5.695-7.087-9.859-13.399-9.859c-0.187,0-0.353,0.055-0.53,0.066
	c-0.292-0.031-0.563-0.066-0.855-0.066c-3.689,0-6.333,1.68-8.248,3.852c-2.492,2.342-4.093,5.584-4.38,9.212
	c-0.063,0.332-0.104,0.542-0.104,0.542v0.526v68.231l0.206,44.451c0,0-1.759,4.652-6.144,0c-4.384-4.646-2.834-21.918-2.834-21.918
	s0-24.568-17.123-20.185c-17.112,4.393-4.611,65.922-3.951,68.016c3.435,10.907,41.698,44.327,52.673,46.521
	c10.964,2.204,80.32,4.389,86.021,0c5.705-4.381,16.241-21.506,17.114-28.521C1737.289,853.126,1736.405,769.305,1736.405,769.305"
	/>
<rect x="1612.855" y="881.232" fill="#F2F2F2" width="113.404" height="38.765"/>
<polyline fill="#99CCCB" points="1601.97,1004.021 1601.97,900.615 1738.965,900.615 1738.965,1004.021 "/>
<rect x="1043" y="846" fill="#818181" width="138" height="74"/>
<rect x="927" y="918" fill="#818181" width="371" height="22"/>
<rect x="939.514" y="758.718" fill="#2C3F51" width="83.583" height="32.29"/>
<rect x="1055.864" y="758.718" fill="#2C3F51" width="83.582" height="32.29"/>
<rect x="1169.339" y="758.718" fill="#2C3F51" width="83.583" height="32.29"/>
<circle fill="#119DA9" cx="1043.459" cy="599.989" r="10.705"/>
<circle fill="#2C3F51" cx="1043.262" cy="599.793" r="7.113"/>
<circle fill="#119DA9" cx="1043.459" cy="641.674" r="10.705"/>
<circle fill="#C8D6DB" cx="1043.262" cy="641.477" r="7.113"/>
<circle fill="#119DA9" cx="1043.459" cy="679.568" r="10.705"/>
<circle fill="#C8D6DB" cx="1043.262" cy="679.37" r="7.113"/>
<circle fill="#119DA9" cx="1043.459" cy="719.356" r="10.705"/>
<circle fill="#C8D6DB" cx="1043.262" cy="719.159" r="7.113"/>
</svg>
