<?xml version="1.0" encoding="utf-8"?>
<!-- Generator: Adobe Illustrator 15.0.0, SVG Export Plug-In . SVG Version: 6.00 Build 0)  -->
<!DOCTYPE svg PUBLIC "-//W3C//DTD SVG 1.1//EN" "http://www.w3.org/Graphics/SVG/1.1/DTD/svg11.dtd">
<svg version="1.1" id="pin_Wall" xmlns="http://www.w3.org/2000/svg" xmlns:xlink="http://www.w3.org/1999/xlink" x="0px" y="0px"
	 width="900px" height="900px" viewBox="0 0 900 900" enable-background="new 0 0 900 900" xml:space="preserve">
<g>
	<polyline fill="#FFFFFF" points="536.96,217.138 536.96,682.468 36.868,682.468 36.868,217.138 536.96,217.138 	"/>
	<path fill="#25313F" d="M879.39,196.062H21.607c-3.197,0-5.809,2.615-5.809,5.81v495.854c0,3.198,2.609,5.812,5.809,5.812h857.781
		c3.191,0,5.809-2.613,5.809-5.812V201.873C885.197,198.678,882.579,196.062,879.39,196.062z M536.973,682.468H36.868v-238.18
		H536.96v-4.979H36.868V217.138h500.104L536.973,682.468L536.973,682.468z"/>
	<g>
		<rect x="86.671" y="487.831" fill="#25313F" width="47.349" height="65.56"/>
		<rect x="171.156" y="487.831" fill="#25313F" width="47.35" height="65.56"/>
		<rect x="255.643" y="487.831" fill="#25313F" width="47.349" height="65.56"/>
		<rect x="340.125" y="487.831" fill="#25313F" width="47.354" height="65.56"/>
		<rect x="424.615" y="487.831" fill="#25313F" width="47.349" height="65.56"/>
		<rect x="86.671" y="582.662" fill="#25313F" width="47.349" height="65.561"/>
		<rect x="171.156" y="582.662" fill="#25313F" width="47.35" height="65.561"/>
		<rect x="255.643" y="582.662" fill="#25313F" width="47.349" height="65.561"/>
		<rect x="340.125" y="582.662" fill="#25313F" width="47.354" height="65.561"/>
		<rect x="424.615" y="582.662" fill="#25313F" width="47.349" height="65.561"/>
	</g>
	<path fill="#FFFFFF" d="M830.225,639.608c0.122-0.61,0.204-1.231,0.204-1.867c0-6.735-7.083-12.203-15.813-12.203
		c-1.603,0-3.146,0.188-4.604,0.528c-3.449-6.432-10.332-10.824-18.271-10.824c-11.394,0-20.637,9.033-20.637,20.182
		c0,0.679,0.036,1.347,0.104,2.008c-5.738,0.636-10.153,4.431-10.153,9.034c0,5.047,5.303,9.137,11.845,9.137h49.516
		c6.544,0,11.85-4.092,11.85-9.137C834.259,643.729,832.695,641.282,830.225,639.608z"/>
	<rect x="59.992" y="267.093" fill="#25313F" width="83.146" height="10.406"/>
	<rect x="59.992" y="297.107" fill="#25313F" width="83.146" height="10.406"/>
	<rect x="59.992" y="327.122" fill="#25313F" width="83.146" height="10.396"/>
	<rect x="59.992" y="357.128" fill="#25313F" width="83.146" height="10.406"/>
	<rect x="578.909" y="267.093" fill="#FFFFFF" width="55.365" height="10.406"/>
	<rect x="657.062" y="267.093" fill="#FFFFFF" width="55.36" height="10.406"/>
	<rect x="735.207" y="267.093" fill="#FFFFFF" width="55.358" height="10.406"/>
</g>
</svg>
